<svg width="24" height="25" viewBox="0 0 24 25" fill="none" xmlns="http://www.w3.org/2000/svg">
<path fill-rule="evenodd" clip-rule="evenodd" d="M21 12.5C21 13.0523 20.5523 13.5 20 13.5H4C3.44772 13.5 3 13.0523 3 12.5C3 11.9477 3.44772 11.5 4 11.5L20 11.5C20.5523 11.5 21 11.9477 21 12.5Z" fill="white"/>
<path d="M18.9723 12.5C18.879 12.3452 18.6834 12.0671 18.4695 11.8251C18.0438 11.3432 17.457 10.7928 16.8445 10.261C16.237 9.73357 15.6265 9.24365 15.1662 8.88437C14.9365 8.70515 14.5402 8.40576 14.407 8.30521C13.9624 7.97768 13.8674 7.35173 14.1949 6.90706C14.5224 6.46236 15.1484 6.36736 15.5931 6.69487L15.5968 6.69767C15.7412 6.80672 16.1599 7.12291 16.3966 7.30767C16.8737 7.68002 17.5133 8.19303 18.1557 8.75084C18.7932 9.30434 19.4565 9.9216 19.9683 10.5008C20.2231 10.7892 20.4616 11.0918 20.6417 11.3906C20.8053 11.662 21.0001 12.0568 21.0001 12.5C21.0001 12.9431 20.8053 13.338 20.6417 13.6094C20.4616 13.9082 20.2231 14.2108 19.9683 14.4992C19.4565 15.0784 18.7932 15.6957 18.1557 16.2492C17.5133 16.807 16.8737 17.32 16.3966 17.6923C16.1599 17.8771 15.7415 18.1931 15.5971 18.3021L15.5931 18.3051C15.1484 18.6326 14.5224 18.5376 14.1949 18.0929C13.8674 17.6483 13.9624 17.0223 14.407 16.6948C14.5402 16.5942 14.9365 16.2948 15.1662 16.1156C15.6265 15.7564 16.237 15.2664 16.8445 14.7389C17.457 14.2072 18.0438 13.6568 18.4695 13.1749C18.6834 12.9329 18.879 12.6548 18.9723 12.5Z" fill="white"/>
</svg>
