<svg width="30" height="30" viewBox="0 0 30 30" fill="none" xmlns="http://www.w3.org/2000/svg">
<path d="M22.9202 22.9238H19.5884V17.7028C19.5884 16.4578 19.5631 14.8556 17.8521 14.8556C16.115 14.8556 15.8496 16.2104 15.8496 17.6109V22.9238H12.5177V12.1875H15.7184V13.6509H15.7615C16.2087 12.8071 17.2962 11.9166 18.9209 11.9166C22.2969 11.9166 22.9212 14.1385 22.9212 17.0306L22.9202 22.9238ZM8.75466 10.7184C7.68216 10.7184 6.8206 9.85031 6.8206 8.7825C6.8206 7.71563 7.6831 6.84844 8.75466 6.84844C9.82341 6.84844 10.6897 7.71563 10.6897 8.7825C10.6897 9.85031 9.82247 10.7184 8.75466 10.7184ZM10.4253 22.9238H7.08403V12.1875H10.4253V22.9238ZM24.5871 3.75H5.41153C4.49372 3.75 3.75122 4.47563 3.75122 5.37094V24.6291C3.75122 25.5253 4.49372 26.25 5.41153 26.25H24.5844C25.5012 26.25 26.2512 25.5253 26.2512 24.6291V5.37094C26.2512 4.47563 25.5012 3.75 24.5844 3.75H24.5871Z" fill="white"/>
</svg>
