<svg width="30" height="30" viewBox="0 0 30 30" fill="none" xmlns="http://www.w3.org/2000/svg">
<path d="M9.06701 23.118L9.97292 23.6462C11.4864 24.5287 13.2064 25 15.0012 25C20.5241 25 25.0012 20.5229 25.0012 15C25.0012 9.47715 20.5241 5 15.0012 5C9.47837 5 5.00122 9.47715 5.00122 15C5.00122 16.7954 5.47276 18.516 6.35582 20.0298L6.8838 20.9348L6.06693 23.9368L9.06701 23.118ZM2.50645 27.5L4.1964 21.2894C3.11867 19.442 2.50122 17.2931 2.50122 15C2.50122 8.09644 8.09766 2.5 15.0012 2.5C21.9047 2.5 27.5012 8.09644 27.5012 15C27.5012 21.9035 21.9047 27.5 15.0012 27.5C12.7089 27.5 10.5606 26.883 8.71357 25.8059L2.50645 27.5ZM10.4904 9.13541C10.6577 9.12365 10.8257 9.12185 10.9932 9.13002C11.0609 9.13447 11.1283 9.1423 11.1957 9.15009C11.3948 9.17307 11.6137 9.29431 11.6873 9.46117C12.0602 10.3067 12.422 11.1571 12.7727 12.012C12.8501 12.2008 12.8035 12.4454 12.6562 12.6821C12.5815 12.8035 12.4641 12.9738 12.3281 13.1479C12.1867 13.3287 11.8825 13.6614 11.8825 13.6614C11.8825 13.6614 11.7592 13.8091 11.8057 13.993C11.8238 14.0625 11.8815 14.1638 11.9338 14.2489C11.9628 14.296 11.9897 14.3381 12.0072 14.3673C12.3271 14.9014 12.7571 15.4429 13.2824 15.952C13.4329 16.0979 13.5789 16.2467 13.7359 16.385C14.3212 16.9011 14.9835 17.3229 15.6987 17.6353L15.7051 17.6381C15.8107 17.6836 15.865 17.7085 16.0196 17.7741C16.0976 17.8071 16.1774 17.8356 16.2592 17.8573C16.2889 17.865 16.3192 17.8694 16.3497 17.8715C16.5519 17.8836 16.6687 17.754 16.7186 17.6944C17.623 16.5988 17.7057 16.5273 17.712 16.5278V16.5297C17.8309 16.4045 18.0177 16.361 18.1845 16.3713C18.2606 16.3759 18.3364 16.3905 18.4056 16.4221C19.0704 16.7254 20.1572 17.1984 20.1572 17.1984L20.8841 17.5251C21.0059 17.5839 21.117 17.7223 21.1224 17.8568C21.1256 17.9404 21.1346 18.0754 21.1047 18.3224C21.0656 18.6458 20.9672 19.0351 20.8695 19.2391C20.8007 19.3822 20.7117 19.5093 20.6082 19.6168C20.4679 19.7625 20.3636 19.851 20.1949 19.9767C20.0921 20.0532 20.0389 20.0892 20.0389 20.0892C19.8652 20.1987 19.7674 20.2535 19.5605 20.3636C19.2387 20.535 18.8832 20.6335 18.5191 20.6522C18.287 20.6641 18.0555 20.6809 17.8236 20.6684C17.8134 20.6678 17.1134 20.5602 17.1134 20.5602C15.336 20.0928 13.6922 19.217 12.3129 18.0025C12.0309 17.7543 11.7694 17.4856 11.5024 17.2199C10.3911 16.1135 9.54977 14.9205 9.03961 13.792C8.78803 13.2355 8.62873 12.6395 8.62622 12.0262C8.62161 11.2676 8.86998 10.529 9.33211 9.92733C9.42321 9.80871 9.50967 9.68569 9.65886 9.54483C9.81685 9.39564 9.9174 9.31555 10.0257 9.26014C10.1701 9.18628 10.3287 9.14678 10.4904 9.13541Z" fill="white"/>
</svg>
